<svg id="Calque_1" data-name="Calque 1" xmlns="http://www.w3.org/2000/svg" width="10" height="16" viewBox="0 0 10 16"><path d="M4.14,6.07h7.71A1,1,0,0,1,13,7h0a1,1,0,0,1-1.09,1H4.14A1,1,0,0,1,3.05,7h0a1,1,0,0,1,1.09-1Z" transform="translate(-3)" style="fill:#d769a8"/><path d="M5.54,3h4.94a1,1,0,0,1,1.09,1h0a1,1,0,0,1-1.09,1H5.54A1,1,0,0,1,4.45,4h0A1,1,0,0,1,5.54,3Z" transform="translate(-3)" style="fill:#45abbc"/><path d="M8.67,1.6H7.3c-.6,0-1.09-.36-1.09-.8h0C8,.2,7.55.38,8.68,0h0c.6,0,1.09.36,1.09.8h0C9.76,1.24,9.28,1.59,8.67,1.6Z" transform="translate(-3)" style="fill:#ed9c21"/><path d="M12.22,9.44H3.76a.74.74,0,0,0-.76.72H3l.91,5.12a.75.75,0,0,0,.77.72h6.63a.75.75,0,0,0,.78-.71h0v0L13,10.15a.74.74,0,0,0-.76-.72Z" transform="translate(-3)" style="fill:#6cbe45"/></svg>