<!-- SVG DEFINITIONS -->
<svg xmlns="http://www.w3.org/2000/svg" class="svg-library">
  <defs>
    <style type="text/css" >
        .icon-bt {
          fill: var(--text-inv);
        }
        .icon {
          fill: var(--main-color);
        }
        .text-bt {
          stroke: #006600;
          fill:   #cc0000;
        }
    </style>
    <path id="pic-truc" d="M7.36,6,13,.29a1,1,0,0,1,1.41,0h0a1,1,0,0,1,0,1.42L8.07,8.07a1,1,0,0,1-1.41,0L.29,1.71A1,1,0,0,1,.29.29h0a1,1,0,0,1,1.42,0L7.36,6" transform="translate(0)" />

    <g id="nav-blocks">
      <path fill="none" d="M0 0h24v24H0z"/>
      <path d="M3 3h8v8H3V3zm0 10h8v8H3v-8zM13 3h8v8h-8V3zm0 10h8v8h-8v-8z"/>
    </g>
  </defs>
</svg>
