<svg id="Calque_1" data-name="Calque 1" xmlns="http://www.w3.org/2000/svg" width="130" height="100" viewBox="0 0 130 100"><rect width="130" height="100" style="fill:#fff;opacity:0"/><circle cx="51.45" cy="27.83" r="4.82" style="fill:#45abbc"/><circle cx="54.38" cy="53.53" r="2.72" style="fill:#45abbc"/><circle cx="98.49" cy="38.76" r="5.91" style="fill:#45abbc"/><circle cx="71.22" cy="57.72" r="3.79" style="fill:#45abbc"/><circle cx="73.69" cy="33.85" r="1.89" style="fill:#45abbc"/><circle cx="77.93" cy="10.84" r="1.89" style="fill:#45abbc"/><circle cx="21.85" cy="57.27" r="4.95" style="fill:#45abbc"/><circle cx="66.11" cy="75.02" r="3.29" style="fill:#6cbe45"/><circle cx="96.15" cy="54.32" r="4.08" style="fill:#6cbe45"/><circle cx="82.65" cy="20.4" r="5.26" style="fill:#6cbe45"/><circle cx="38.81" cy="45.83" r="2.04" style="fill:#6cbe45"/><circle cx="40.2" cy="85.51" r="4.2" style="fill:#6cbe45"/><circle cx="41.29" cy="68.02" r="2.1" style="fill:#6cbe45"/><circle cx="87.97" cy="77.86" r="3.78" style="fill:#d769a8"/><circle cx="79.29" cy="38.64" r="3.69" style="fill:#d769a8"/><circle cx="21.34" cy="36.13" r="4.34" style="fill:#d769a8"/><circle cx="57.75" cy="13.43" r="1.44" style="fill:#d769a8"/><circle cx="116.75" cy="26.67" r="2.34" style="fill:#d769a8"/><g style="opacity:0.14"><circle cx="49.88" cy="30.32" r="4.82"/><circle cx="52.81" cy="56.02" r="2.72"/><circle cx="96.92" cy="41.25" r="5.91"/><circle cx="69.65" cy="60.21" r="3.79"/><circle cx="72.12" cy="36.34" r="1.89"/><circle cx="76.36" cy="13.33" r="1.89"/><circle cx="20.28" cy="59.75" r="4.95"/><circle cx="64.53" cy="77.5" r="3.29"/><circle cx="94.58" cy="56.8" r="4.08"/><circle cx="81.08" cy="22.88" r="5.26"/><circle cx="37.24" cy="48.31" r="2.04"/><circle cx="38.63" cy="87.99" r="4.2"/><circle cx="39.71" cy="70.51" r="2.1"/><circle cx="86.4" cy="80.35" r="3.78"/><circle cx="77.72" cy="41.12" r="3.69"/><circle cx="19.77" cy="38.61" r="4.34"/><circle cx="56.18" cy="15.91" r="1.44"/><circle cx="115.18" cy="29.16" r="2.34"/></g></svg>