<svg id="Calque_1" data-name="Calque 1" xmlns="http://www.w3.org/2000/svg" width="310.8" height="187.5" viewBox="0 0 310.8 187.5"><rect width="310.8" height="187.5" style="fill:#fff;opacity:0"/><path d="M101.64,44.72l10.15,81h92.1l2.9-81Zm41.6,49.78a13.52,13.52,0,0,0,19.22,0,13.52,13.52,0,0,0,2.45-3.27s1.12-3.41,9.88-3.41,10.39,3.41,10.39,3.41a34.59,34.59,0,0,1-9.43,17.15,31,31,0,0,1-22.27,8.31,32.11,32.11,0,0,1-23.6-9.42A31.78,31.78,0,0,1,119.93,84a32.18,32.18,0,0,1,9.65-23.68,32.63,32.63,0,0,1,23.9-9.65,31.46,31.46,0,0,1,23.31,9.43,35.34,35.34,0,0,1,8.61,16A13.19,13.19,0,0,1,175,79.65c-8.76,0-10.47-3.63-10.47-3.63a12,12,0,0,0-11.35-6.91,13,13,0,0,0-9.95,4.16,14.88,14.88,0,0,0-3.94,10.62A14.24,14.24,0,0,0,143.24,94.5Z" style="opacity:0.19"/><path d="M114.22,124.45h-77c-1.7,0-3.88.38-4.18,2s1.85,2.87,3.59,3.34l14.55,3.91c4.34,3.49-20.8,5.27-17.32,8.77,5.94,3.66,35.71,2.61,53.57,1.63,2-.11,4-.21,5.75.73s-1.4,4.16,1.59,4.93c9.87,3.08,19.8-3.67,29.8-6.34,13.43-3.6,27.75.28,41.54-1.51a5.18,5.18,0,0,0,3.1-1.16c2-2-.16-5.41-2.44-7.15-15.09-11.45-35.9-10.38-54.78-8.78" style="fill:#45abbc"/><path d="M215.9,118.22a294,294,0,0,1,75.4,5.68c17.54,3.52-35.44,5.68-52.8,11.62-1.27.43-2.66,1.06-3.17,2.31-1.16,2.87,2.92,4.86,6,5.27L277.73,148c7.18,1.53-10.81,6.33-17.13,6.88-38.59,3.34-77.37-8.68-115.9-4.69-2.85.29-6.58.14-7.46-2.58a4.85,4.85,0,0,1,0-2.67c2.31-9.15,14.05-11.43,23.47-11.93l32.07-1.7c2.41-.13,5-.3,7-1.66,2.41-1.65,3.46-4.62,5.08-7s4.78-4.52,7.34-3.1" style="fill:#d769a8"/><path d="M83.19,163.9l-8,.73c-.09.42.15-.17,0,0-2.72,3,6.85,2.61,10.4,3,1.34.13,2.85.1,3.82-1.08s.66-3.85-.69-4" style="fill:#d769a8"/><path d="M185.24,144.86c-10.2-2.69-30.62,7.44-29.57,9.57,1.12,3.44,21.72,2.11,32.6,1.42a7.4,7.4,0,0,0,3.6-.87c2.24-1.45,2.23-5,.53-7.06s-4.5-2.86-7.16-3.06" style="fill:#ed9c21"/><path d="M88.2,128.09c1.6-2.07,1.44-1.63,4-1.37l109.11,7.73h0l-127,5c-3.15.15-9.42-8,2.49-10Z" style="opacity:0.28"/><path d="M215.53,27.2H84.22A11.8,11.8,0,0,0,72.42,39h0l14.33,85.45c0,6.52,5.13,10,11.65,10h103A11.79,11.79,0,0,0,213.45,123v-.3L227.63,39a11.8,11.8,0,0,0-11.8-11.81ZM172,76.93c-8.76,0-10.47-3.64-10.47-3.64a12,12,0,0,0-11.36-6.9,13,13,0,0,0-9.94,4.15,14.84,14.84,0,0,0-3.94,10.62,14.24,14.24,0,0,0,3.94,10.61,13.52,13.52,0,0,0,19.22,0,13.93,13.93,0,0,0,2.45-3.26s1.11-3.42,9.87-3.42,10.39,3.42,10.39,3.42a34.46,34.46,0,0,1-9.42,17.14A31.06,31.06,0,0,1,150.51,114a32.14,32.14,0,0,1-23.6-9.43,31.74,31.74,0,0,1-10-23.31,32.16,32.16,0,0,1,9.65-23.68,32.61,32.61,0,0,1,23.9-9.65,31.52,31.52,0,0,1,23.31,9.43,35.53,35.53,0,0,1,8.61,16A13.26,13.26,0,0,1,172,76.93Z" style="fill:#6cbe45"/><path d="M290.53,148.6c-.46-.18-.94-.36-1.37,0a2.63,2.63,0,0,0-.48,2.35,1.13,1.13,0,0,0,.89.83,19.34,19.34,0,0,0,8.94.43c-2.18-4-5.73-3.59-8.63-3.81" style="fill:#ed9c21"/><path d="M173.25,27a179.65,179.65,0,0,1,34.08-.39c1.09.09,2.32.27,2.93,1.17a3.76,3.76,0,0,1,.45,1.88l.76,12.4a16,16,0,0,1-.29,5.39c-.61,2.07-2,3.8-2.82,5.8-1.71,4.35-.24,9.2.24,13.84a31.81,31.81,0,0,1-1,11.89C204.65,63.63,208,47.7,206,32.21a4.61,4.61,0,0,0-1.1-2.85,4.46,4.46,0,0,0-2.25-.92,78.69,78.69,0,0,0-11.38-1.07c-6.32-.29-10.27-.22-16.6-.51" style="fill:#ed9c21"/><path d="M84.22,27.31h0a11.81,11.81,0,0,0-11.8,11.8l14.33,85.46c0,6.51,5.13,10,11.65,10l3.1-.12C79.53,91.12,84.22,27.31,84.22,27.31Z" style="opacity:0.1"/><ellipse cx="245.05" cy="122.57" rx="13.96" ry="1.52" style="fill:#fff;opacity:0.25"/></svg>