<!-- SVG DEFINITIONS -->
<svg xmlns="http://www.w3.org/2000/svg" class="svg-library">
  <defs>
    <style type="text/css" >
        .icon-bt {
          fill: var(--text-inv);
        }
        .icon {
          fill: var(--main-color);
        }
        .text-bt {
          stroke: #006600;
          fill:   #cc0000;
        }
    </style>
    <path id="pic-arrow" class="icon-bt" d="M7.36,6,13,.29a1,1,0,0,1,1.41,0h0a1,1,0,0,1,0,1.42L8.07,8.07a1,1,0,0,1-1.41,0L.29,1.71A1,1,0,0,1,.29.29h0a1,1,0,0,1,1.42,0L7.36,6" transform="translate(0)" />
    <g id="pic-kebab" style="fill:#fff">
      <circle cx="7.5" cy="2.5" r="1.35" />
      <circle cx="7.5" cy="7.5" r="1.35" />
      <circle cx="7.5" cy="12.5" r="1.35" />
    </g>
    <g id="bt-menu">
      <path d="M0,0H24V24H0Z" style="fill:none"/>
      <path class="icon-bts" d="M3,4H21V6H3Zm0,7H21v2H3Zm0,7H21v2H3Z"/>
    </g>
    <g id="bt-delete">
      <path d="M8,8H32V32H8Z" style="fill:none"/>
      <path class="icon-bts" d="M17 6h5v2h-2v13a1 1 0 0 1-1 1H5a1 1 0 0 1-1-1V8H2V6h5V3a1 1 0 0 1 1-1h8a1 1 0 0 1 1 1v3zm1 2H6v12h12V8zm-9 3h2v6H9v-6zm4 0h2v6h-2v-6zM9 4v2h6V4H9z"/>
    </g>
    <g id="accordion-down" class="icon-bt">
      <path fill="none" d="M0 0h24v24H0z"/>
      <path d="M12 16l-6-6h12z"/>
    </g>
    <g id="info">
      <path fill="none" d="M0 0h24v24H0z"/>
      <path d="M12 22C6.477 22 2 17.523 2 12S6.477 2 12 2s10 4.477 10 10-4.477 10-10 10zm-1-11v6h2v-6h-2zm0-4v2h2V7h-2z"/>
    </g>
    <g id="warning">
      <path d="M0,0H24V24H0Z" style="fill:none"/>
      <path d="M12,22A10,10,0,1,1,22,12,10,10,0,0,1,12,22Zm-1-7v2h2V15Zm0-8v6h2V7Z"/>
    </g>
    <g id="error">
      <path fill="none" d="M0 0h24v24H0z"/>
      <path d="M12 22C6.477 22 2 17.523 2 12S6.477 2 12 2s10 4.477 10 10-4.477 10-10 10zm0-11.414L9.172 7.757 7.757 9.172 10.586 12l-2.829 2.828 1.415 1.415L12 13.414l2.828 2.829 1.415-1.415L13.414 12l2.829-2.828-1.415-1.415L12 10.586z"/>
    </g>
    <g id="bt-delete-tab">
      <circle cx="9" cy="9" r="9" style="fill:#fff"/>
      <path d="M9,8l3.56-3.56,1,1L10,9l3.56,3.56-1,1L9,10,5.44,13.58l-1-1L8,9,4.42,5.44l1-1Z"/>
    </g>
    <g id="bt-scrollLeft">
      <path fill="none" d="M0 0h24v24H0z"/>
      <path d="M16 12l-6 6V6z"/>
    </g>
    <g id="bt-scrollRight">
      <path fill="none" d="M0 0h24v24H0z"/>
      <path d="M8 12l6-6v12z"/>
    </g>
    <g id="bt-close">
      <path d="M0,0H24V24H0Z" style="fill:none"/>
      <path d="M12,10.59,17,5.64l1.41,1.41-4.95,5L18.36,17,17,18.36,12,13.41,7.05,18.36,5.64,17l5-4.95L5.64,7.05,7.05,5.64Z"/>
    </g>
    <g id="bt-plus">
      <path fill="none" d="M0 0h24v24H0z"/>
      <path d="M11 11V7h2v4h4v2h-4v4h-2v-4H7v-2h4zm1 11C6.477 22 2 17.523 2 12S6.477 2 12 2s10 4.477 10 10-4.477 10-10 10zm0-2a8 8 0 1 0 0-16 8 8 0 0 0 0 16z"/>
    </g>
    <g id="bt-less">
      <path fill="none" d="M0 0h24v24H0z"/>
      <path d="M13,13H7V11h6m0,0h4v2H13m-1,9A10,10,0,1,1,22,12,10,10,0,0,1,12,22Zm0-2a8,8,0,1,0-8-8A8,8,0,0,0,12,20Z"/>
    </g>
  </defs>
</svg>
