<svg id="61f226e7-2dc5-4012-9315-4eb26e20953f" data-name="c8a30e8a-13c6-4ef2-ac6e-253bb11d8cce" xmlns="http://www.w3.org/2000/svg" width="124.55" height="18.6" viewBox="0 0 124.55 18.6"><title>creamNG-logo-sml</title><path d="M12.05,4.62A5,5,0,0,0,9.67,4a4.67,4.67,0,0,0-2.47.68A4.77,4.77,0,0,0,5.45,6.56a5.81,5.81,0,0,0,0,5.29A4.77,4.77,0,0,0,7.2,13.72a4.67,4.67,0,0,0,2.47.68,5.41,5.41,0,0,0,2.3-.56,7.22,7.22,0,0,0,2.15-1.53l2.74,2.94a10.92,10.92,0,0,1-3.46,2.44,9.65,9.65,0,0,1-8.78-.32A9,9,0,0,1,1.23,14,9.34,9.34,0,0,1,0,9.25a8.94,8.94,0,0,1,4.69-8A10.22,10.22,0,0,1,13.54.83a9.76,9.76,0,0,1,3.3,2.26L14.13,6.36A6.58,6.58,0,0,0,12.05,4.62Z" style="fill:#fff"/><path d="M25.25,4.84a5.14,5.14,0,0,1,2.6-.64V8.37h-.69a4.24,4.24,0,0,0-2.61.75,2.87,2.87,0,0,0-1.15,2.06v7H18.85V4.37H23.4v2.3A5.07,5.07,0,0,1,25.25,4.84Z" style="fill:#fff"/><path d="M40,13.25l2.57,2.3a7.92,7.92,0,0,1-6.34,2.81,8.44,8.44,0,0,1-3.91-.87A6.31,6.31,0,0,1,29.65,15a7.08,7.08,0,0,1-.93-3.68,7.48,7.48,0,0,1,.9-3.73,6.33,6.33,0,0,1,2.54-2.51A7.82,7.82,0,0,1,36,4.19,7.57,7.57,0,0,1,39.54,5,5.93,5.93,0,0,1,42,7.3a7.15,7.15,0,0,1,.92,3.5L33.65,13a3.08,3.08,0,0,0,1.13,1.39,3,3,0,0,0,1.74.5A4.65,4.65,0,0,0,40,13.25Zm-5.82-5a3.63,3.63,0,0,0-.86,2.29l5.14-1.28a2.53,2.53,0,0,0-.84-1.35,2.25,2.25,0,0,0-1.46-.46A2.6,2.6,0,0,0,34.15,8.25Z" style="fill:#fff"/><path d="M59,4.37V18.21H54.47V16.47a4.84,4.84,0,0,1-1.75,1.42,5.25,5.25,0,0,1-2.31.5A6.27,6.27,0,0,1,47,17.5,6,6,0,0,1,44.76,15,8.37,8.37,0,0,1,44,11.26a8.08,8.08,0,0,1,.79-3.68A5.88,5.88,0,0,1,47,5.12a6.58,6.58,0,0,1,3.38-.87,5.21,5.21,0,0,1,2.33.51,5.1,5.1,0,0,1,1.76,1.43V4.37ZM53.54,14a3.44,3.44,0,0,0,.92-2.17v-.92a3.46,3.46,0,0,0-.92-2.2,2.84,2.84,0,0,0-4.16.18,3.68,3.68,0,0,0-.84,2.46,3.7,3.7,0,0,0,.83,2.49,2.71,2.71,0,0,0,2.16,1A2.67,2.67,0,0,0,53.54,14Z" style="fill:#fff"/><path d="M84.54,5.63A5.42,5.42,0,0,1,85.9,9.49v8.72H81.35V10.79a2.66,2.66,0,0,0-.61-1.85,2.13,2.13,0,0,0-1.66-.68,2.42,2.42,0,0,0-1.91.88,3.4,3.4,0,0,0-.7,2.24v6.83H71.92V10.79a2.66,2.66,0,0,0-.61-1.85,2.13,2.13,0,0,0-1.66-.68,2.44,2.44,0,0,0-1.92.88A3.37,3.37,0,0,0,67,11.38v6.83H62.54V4.37h4.53V6.65a4.85,4.85,0,0,1,1.85-1.83,5.45,5.45,0,0,1,2.65-.63A5,5,0,0,1,74.46,5a4.38,4.38,0,0,1,1.71,2.28A5,5,0,0,1,78.07,5,5.39,5.39,0,0,1,81,4.2,4.75,4.75,0,0,1,84.54,5.63Z" style="fill:#fff"/><path d="M102.48.82a5.51,5.51,0,0,1,2.16,2.3,7.38,7.38,0,0,1,.77,3.45V18.21h-4.76V7.7a3.51,3.51,0,0,0-.87-2.48,3,3,0,0,0-2.3-1A3.57,3.57,0,0,0,94.76,5.4,4,4,0,0,0,93.7,8.24v10H89V.28H93.7V2.89A6.34,6.34,0,0,1,96.07.75,6.85,6.85,0,0,1,99.3,0,6.21,6.21,0,0,1,102.48.82Z" style="fill:#fff"/><path d="M120.41,8.9h4v9.31H121V17a8.58,8.58,0,0,1-2.19,1.13,6.9,6.9,0,0,1-2.34.41,9.08,9.08,0,0,1-4.63-1.21A8.69,8.69,0,0,1,108.54,14a9.67,9.67,0,0,1-1.19-4.76,9,9,0,0,1,4.79-8,10.48,10.48,0,0,1,5-1.2,11.85,11.85,0,0,1,4,.73,10.75,10.75,0,0,1,3.41,2L122,6a7.63,7.63,0,0,0-2.22-1.46A6.36,6.36,0,0,0,117.27,4a5,5,0,0,0-4.4,2.58,5.46,5.46,0,0,0-.66,2.68,5.82,5.82,0,0,0,.63,2.72,4.79,4.79,0,0,0,1.7,1.87,4.52,4.52,0,0,0,2.45.69,4.3,4.3,0,0,0,1.87-.42A4.53,4.53,0,0,0,120.41,13Z" style="fill:#fff"/></svg>