<svg id="Calque_1" data-name="Calque 1" xmlns="http://www.w3.org/2000/svg" width="130" height="100" viewBox="0 0 130 100"><rect width="130" height="100" style="fill:#fff;opacity:0"/><path d="M67.2,8.59c-20.18-1.68-36,10.7-40.92,15A2.81,2.81,0,0,0,25.62,27L56.27,90a2.82,2.82,0,0,0,4.77.5l43-55.3a2.81,2.81,0,0,0,.06-3.4C100.23,26.51,87.28,11.12,67.2,8.59Z" style="fill:#ed9c21"/><g style="opacity:0.21"><line x1="36.76" y1="27.49" x2="62.42" y2="83.86" style="fill:none;stroke:#493217;stroke-linecap:round;stroke-linejoin:round;stroke-width:1.4141368865966797px"/><line x1="43.8" y1="22.26" x2="68.33" y2="75.62" style="fill:none;stroke:#493217;stroke-linecap:round;stroke-linejoin:round;stroke-width:1.4141368865966797px"/><line x1="51.54" y1="18.32" x2="74.77" y2="68.08" style="fill:none;stroke:#493217;stroke-linecap:round;stroke-linejoin:round;stroke-width:1.4141368865966797px"/><line x1="59.5" y1="16.03" x2="80.62" y2="60.25" style="fill:none;stroke:#493217;stroke-linecap:round;stroke-linejoin:round;stroke-width:1.4141368865966797px"/><line x1="69.55" y1="15.7" x2="86.68" y2="52.17" style="fill:none;stroke:#493217;stroke-linecap:round;stroke-linejoin:round;stroke-width:1.4141368865966797px"/><line x1="81.51" y1="19.9" x2="93" y2="43.72" style="fill:none;stroke:#493217;stroke-linecap:round;stroke-linejoin:round;stroke-width:1.4141368865966797px"/><line x1="95.09" y1="33.59" x2="58.32" y2="83.43" style="fill:none;stroke:#493217;stroke-linecap:round;stroke-linejoin:round;stroke-width:1.4141368865966797px"/><line x1="89.29" y1="27.02" x2="54.25" y2="74.14" style="fill:none;stroke:#493217;stroke-linecap:round;stroke-linejoin:round;stroke-width:1.4141368865966797px"/><line x1="82.53" y1="21.56" x2="49.51" y2="65.44" style="fill:none;stroke:#493217;stroke-linecap:round;stroke-linejoin:round;stroke-width:1.4141368865966797px"/><line x1="75.21" y1="17.67" x2="45.39" y2="56.57" style="fill:none;stroke:#493217;stroke-linecap:round;stroke-linejoin:round;stroke-width:1.4141368865966797px"/><line x1="65.45" y1="15.27" x2="41.15" y2="47.41" style="fill:none;stroke:#493217;stroke-linecap:round;stroke-linejoin:round;stroke-width:1.4141368865966797px"/><line x1="52.88" y1="16.9" x2="36.71" y2="37.83" style="fill:none;stroke:#493217;stroke-linecap:round;stroke-linejoin:round;stroke-width:1.4141368865966797px"/></g><line x1="35.86" y1="26.37" x2="61.52" y2="82.74" style="fill:none;stroke:#efbf7f;stroke-linecap:round;stroke-linejoin:round;stroke-width:1.4141368865966797px"/><line x1="42.89" y1="21.14" x2="67.42" y2="74.5" style="fill:none;stroke:#efbf7f;stroke-linecap:round;stroke-linejoin:round;stroke-width:1.4141368865966797px"/><line x1="50.63" y1="17.2" x2="73.86" y2="66.96" style="fill:none;stroke:#efbf7f;stroke-linecap:round;stroke-linejoin:round;stroke-width:1.4141368865966797px"/><line x1="58.6" y1="14.91" x2="79.72" y2="59.13" style="fill:none;stroke:#efbf7f;stroke-linecap:round;stroke-linejoin:round;stroke-width:1.4141368865966797px"/><line x1="68.65" y1="14.58" x2="85.77" y2="51.05" style="fill:none;stroke:#efbf7f;stroke-linecap:round;stroke-linejoin:round;stroke-width:1.4141368865966797px"/><line x1="80.61" y1="18.78" x2="92.09" y2="42.6" style="fill:none;stroke:#efbf7f;stroke-linecap:round;stroke-linejoin:round;stroke-width:1.4141368865966797px"/><line x1="94.18" y1="32.47" x2="57.41" y2="82.31" style="fill:none;stroke:#efbf7f;stroke-linecap:round;stroke-linejoin:round;stroke-width:1.4141368865966797px"/><line x1="88.38" y1="25.9" x2="53.34" y2="73.02" style="fill:none;stroke:#efbf7f;stroke-linecap:round;stroke-linejoin:round;stroke-width:1.4141368865966797px"/><line x1="81.62" y1="20.44" x2="48.6" y2="64.31" style="fill:none;stroke:#efbf7f;stroke-linecap:round;stroke-linejoin:round;stroke-width:1.4141368865966797px"/><line x1="74.3" y1="16.55" x2="44.49" y2="55.45" style="fill:none;stroke:#efbf7f;stroke-linecap:round;stroke-linejoin:round;stroke-width:1.4141368865966797px"/><line x1="64.54" y1="14.15" x2="40.24" y2="46.29" style="fill:none;stroke:#efbf7f;stroke-linecap:round;stroke-linejoin:round;stroke-width:1.4141368865966797px"/><line x1="51.97" y1="15.78" x2="35.8" y2="36.71" style="fill:none;stroke:#efbf7f;stroke-linecap:round;stroke-linejoin:round;stroke-width:1.4141368865966797px"/></svg>