<svg id="Calque_1" data-name="Calque 1" xmlns="http://www.w3.org/2000/svg" width="130" height="100" viewBox="0 0 130 100"><rect width="130" height="100" style="fill:#fff;opacity:0"/><path d="M67.05,28.37a3.63,3.63,0,0,1-.73-.08,3.51,3.51,0,0,1-2.71-4.14c1-5,6.4-14.6,19.25-15.09a3.51,3.51,0,0,1,3.65,3.38c.07,1.93-1.44-.79-3.38-.71-10.3.39-12.43,12.94-12.64,13.87A3.54,3.54,0,0,1,67.05,28.37Z" style="fill:#6cbe45"/><path d="M72.7,21.3a36.84,36.84,0,0,0-1.3,4.79A4.58,4.58,0,0,1,67,29.67a4.47,4.47,0,0,1-1-.1,4.54,4.54,0,0,1-3.51-5.36,19.7,19.7,0,0,1,1-3.21,34.68,34.68,0,0,0-9.62,2.36A30.19,30.19,0,0,1,62.56,27S55.55,48.35,34,43.92A35.06,35.06,0,1,0,72.7,21.3Z" style="fill:#d769a8"/><path d="M60.93,27.74S39,13.92,28,40.87C52.7,50.71,60.93,27.74,60.93,27.74Z" style="fill:#6cbe45"/><path d="M85.89,31.8s5.3,1.61,7.16,10.38a32.22,32.22,0,0,0-8.93-8.77Z" style="fill:#fff;opacity:0.47"/></svg>